<svg version="1.1" width="360" height="241" viewBox="-1 -1 360 241" xmlns="http://www.w3.org/2000/svg" xmlns:xlink="http://www.w3.org/1999/xlink">
  <!-- Exported by Scratch - http://scratch.mit.edu/ -->
  <g id="ID0.28248124243691564" transform="matrix(1.0501326322555542, 0, 0, 1.0501326322555542, 0, 0)">
    <g id="layer1">
      <g id="g9893">
        <path id="path17976" fill="#ffc701" stroke="none" stroke-width="1" stroke-linecap="butt" stroke-linejoin="miter" d="M 543 119 C 543 119 547 177 531 189 C 515 201 397 320 397 320 L 419 345 L 562 248 L 573 121 L 543 119 Z " transform="matrix(0.6396360397338867, 0, 0, 0.6396360397338867, -53.55, -46.45)"/>
        <path id="path18863" fill="black" stroke="none" stroke-width="1" stroke-linecap="butt" stroke-linejoin="miter" opacity="0.7" d="M 525.142 437.648 C 525.142 437.648 529.142 495.648 513.142 507.648 C 497.142 519.648 379.142 638.648 379.142 638.648 L 401.142 663.648 L 544.142 566.648 L 555.142 439.648 L 525.142 437.648 Z " transform="matrix(0.6396360397338867, 0, 0, 0.6396360397338867, -42.1, -250.25)"/>
      </g>
      <g id="g2783">
        <path id="path6424" fill="#ffc701" stroke="none" stroke-width="2" stroke-linecap="butt" stroke-linejoin="miter" d="M 519.911 399.654 L 483.387 454.453 C 483.387 454.453 454.126 461.721 439.294 470.941 C 424.463 480.162 377.858 514.191 274.748 506.891 C 171.638 499.590 156.322 477.557 133.976 476.751 C 111.630 475.945 77.838 479.827 69.647 486.065 C 61.456 492.303 71.250 511.094 71.250 511.094 C 71.250 511.094 101.217 578.495 210.306 606.149 C 319.394 633.803 448.545 576.707 448.545 576.707 L 538.742 411.074 L 519.911 399.654 Z " transform="matrix(0.6396360397338867, 0, 0, 0.6396360397338867, -42.1, -250.25)"/>
        <path id="path1895" fill="white" stroke="none" stroke-width="2" stroke-linecap="butt" stroke-linejoin="miter" opacity="0.4" d="M 517.005 404.010 L 483.380 454.447 C 483.380 454.447 454.118 461.727 439.286 470.947 C 424.455 480.168 377.865 514.185 274.755 506.885 C 171.645 499.584 156.320 477.566 133.974 476.760 C 111.628 475.953 77.852 479.834 69.661 486.072 C 69.290 486.355 68.962 486.678 68.661 487.010 C 87.946 484.212 116.375 484.781 136.380 488.416 C 174.771 495.393 209.978 518.656 299.505 516.228 C 426.737 512.740 441.665 473.103 459.380 468.416 C 484.008 461.900 530.484 452.346 517.005 404.010 Z " transform="matrix(0.6396360397338867, 0, 0, 0.6396360397338867, -42.1, -250.25)"/>
        <path id="path9086" fill="black" stroke="none" stroke-width="1" stroke-linecap="butt" stroke-linejoin="miter" opacity="0.4" d="M 106.962 554.708 C 128.494 573.415 161.443 593.763 210.306 606.149 C 222.070 609.131 234.076 611.111 246.119 612.300 L 284.832 604.453 C 220.542 614.517 142.316 575.188 106.962 554.708 Z " transform="matrix(0.6396360397338867, 0, 0, 0.6396360397338867, -42.1, -250.25)"/>
      </g>
      <g id="g9941">
        <path id="path12644" fill="#ffc701" stroke="none" stroke-width="2" stroke-linecap="butt" stroke-linejoin="miter" opacity="1" d="M 546 120 C 546 120 567 175 561 189 C 555 203 520 283 455 313 C 390 343 223 339 219 331 C 215 323 219 407 320 438 C 421 469 550.089 401.093 573 379 C 602 351 657 279 641 225 C 625 171 613 187 604 172 C 595 157 585 128 585 116 C 585 104 547 120 546 120 Z " transform="matrix(0.6396360397338867, 0, 0, 0.6396360397338867, -53.55, -46.45)"/>
        <path id="path8981" fill="black" stroke="none" stroke-width="2" stroke-linecap="butt" stroke-linejoin="miter" opacity="0.6" d="M 533.724 527.638 C 518.530 557.285 486.499 608.852 437.131 631.638 C 372.131 661.638 205.131 657.638 201.131 649.638 C 200.131 647.638 199.646 651.403 201.037 658.638 L 201.068 658.763 L 203.131 665.638 C 203.131 665.638 202.968 665.653 202.756 665.731 C 202.859 666.093 202.988 666.486 203.099 666.856 C 203.246 667.346 203.377 667.821 203.537 668.325 C 203.825 669.232 204.173 670.186 204.506 671.138 C 204.617 671.457 204.701 671.782 204.818 672.106 C 205.044 672.735 205.322 673.367 205.568 674.013 C 205.852 674.755 206.101 675.499 206.412 676.263 C 206.632 676.805 206.896 677.366 207.131 677.919 C 207.446 678.658 207.758 679.381 208.099 680.138 C 208.262 680.498 208.431 680.867 208.599 681.231 C 209.691 683.593 210.890 686.024 212.256 688.513 C 212.291 688.577 212.345 688.635 212.381 688.700 C 212.397 688.729 212.396 688.765 212.412 688.794 C 212.774 689.448 213.155 690.101 213.537 690.763 C 213.572 690.824 213.595 690.889 213.631 690.950 C 214.034 691.646 214.454 692.341 214.881 693.044 C 215.336 693.795 215.805 694.568 216.287 695.325 C 216.295 695.337 216.310 695.344 216.318 695.356 C 216.780 696.081 217.238 696.814 217.724 697.544 C 217.728 697.549 217.752 697.539 217.756 697.544 C 258.555 715.446 403.224 681.106 468.131 633.638 C 513.821 600.222 528.807 553.796 533.724 527.638 Z " transform="matrix(0.6396360397338867, 0, 0, 0.6396360397338867, -42.1, -250.25)"/>
        <path id="path17089" fill="black" stroke="none" stroke-width="1" stroke-linecap="butt" stroke-linejoin="miter" opacity="0.4" d="M 559.799 430.179 C 558.185 430.207 556.385 430.422 554.487 430.741 C 560.758 449.996 590.834 543.708 588.143 561.648 C 585.143 581.648 553.309 654.348 501.143 685.648 C 466.143 706.648 390.143 739.648 363.143 744.648 C 346.056 747.812 312.616 752.465 286.487 751.116 C 291.435 753.100 296.632 754.956 302.143 756.648 C 403.143 787.648 532.232 719.740 555.143 697.648 C 584.143 669.648 639.143 597.648 623.143 543.648 C 607.143 489.648 595.143 505.648 586.143 490.648 C 577.143 475.648 567.143 446.648 567.143 434.648 C 567.143 431.273 564.143 430.103 559.799 430.179 Z " transform="matrix(0.6396360397338867, 0, 0, 0.6396360397338867, -42.1, -250.25)"/>
      </g>
      <g id="g9903">
        <path id="path1933" fill="#ffc701" stroke="none" stroke-width="2" stroke-linecap="butt" stroke-linejoin="miter" d="M 533.143 448.648 C 533.143 448.648 514.143 467.648 519.143 485.648 C 524.143 503.648 541.143 547.648 478.143 597.648 C 415.143 647.648 232.143 734.648 109.143 639.648 C 74.143 599.648 94.143 573.648 94.143 573.648 C 94.143 573.648 114.130 570.758 122.143 571.648 C 132.143 568.648 179.143 571.648 223.143 573.648 C 282.053 572.490 443.143 497.648 474.143 468.648 C 474.143 468.648 512.143 422.648 513.143 414.648 C 514.143 406.648 540.143 430.648 541.143 437.648 C 542.143 444.648 533.143 447.648 533.143 448.648 Z " transform="matrix(0.6396360397338867, 0, 0, 0.6396360397338867, -42.1, -250.25)"/>
        <path id="path7201" fill="white" stroke="none" stroke-width="2" stroke-linecap="butt" stroke-linejoin="miter" opacity="0.4" d="M 514.600 413.045 C 513.792 413.140 513.257 413.638 513.132 414.638 C 512.132 422.638 474.132 468.638 474.132 468.638 C 443.132 497.638 282.042 572.481 223.132 573.638 C 179.132 571.638 132.132 568.638 122.132 571.638 C 114.119 570.748 94.132 573.638 94.132 573.638 C 94.132 573.638 93.766 574.166 93.225 575.076 C 104.184 578.283 124.126 582.750 156.382 583.607 C 230.772 585.584 262.007 581.545 326.507 556.420 C 394.137 530.075 484.824 496.220 520.382 415.357 C 517.971 413.817 515.901 412.891 514.600 413.045 Z " transform="matrix(0.6396360397338867, 0, 0, 0.6396360397338867, -42.1, -250.25)"/>
        <path id="path4646" fill="black" stroke="none" stroke-width="1" stroke-linecap="butt" stroke-linejoin="miter" opacity="0.4" d="M 518.581 482.898 C 510.395 511.033 477.266 585.474 350.143 628.648 C 194.697 681.441 156.818 651.083 106.612 636.617 C 107.431 637.615 108.254 638.632 109.143 639.648 C 232.143 734.648 415.143 647.648 478.143 597.648 C 541.143 547.648 524.143 503.648 519.143 485.648 C 518.889 484.731 518.716 483.817 518.581 482.898 Z " transform="matrix(0.6396360397338867, 0, 0, 0.6396360397338867, -42.1, -250.25)"/>
      </g>
      <g id="g9946">
        <path id="path23294" fill="#884a13" stroke="none" stroke-width="4" stroke-linecap="butt" stroke-linejoin="miter" d="M 534.474 391.425 C 528.724 389.925 508.716 405.729 509.068 411.020 C 509.420 416.304 528.535 433.436 540.643 437.574 C 544.643 438.574 566.643 436.574 567.643 432.574 C 568.643 428.574 568.643 411.574 564.643 407.574 C 560.643 403.574 541.164 393.171 534.474 391.425 Z " transform="matrix(0.6396360397338867, 0, 0, 0.6396360397338867, -42.1, -250.25)"/>
        <path id="path22407" fill="#884a13" stroke="none" stroke-width="1" stroke-linecap="butt" stroke-linejoin="miter" d="M 534.474 391.425 C 528.724 389.925 508.716 405.729 509.069 411.020 C 509.420 416.304 528.535 433.436 540.643 437.574 C 544.643 438.574 566.643 436.574 567.643 432.574 C 568.643 428.574 568.643 411.574 564.643 407.574 C 560.643 403.574 541.164 393.170 534.474 391.425 Z " transform="matrix(0.6396360397338867, 0, 0, 0.6396360397338867, -42.1, -250.25)"/>
        <path id="path25958" fill="white" stroke="none" stroke-width="1" stroke-linecap="butt" stroke-linejoin="miter" opacity="0.3" d="M 533.237 391.335 C 526.302 391.855 508.750 406.063 509.080 411.023 C 509.222 413.148 512.419 417.180 516.955 421.523 C 517.242 413.185 521.379 401.088 540.674 393.773 C 538.178 392.666 536.001 391.824 534.487 391.429 C 534.127 391.335 533.699 391.301 533.237 391.335 Z " transform="matrix(0.6396360397338867, 0, 0, 0.6396360397338867, -42.1, -250.25)"/>
        <path id="path26854" fill="black" stroke="none" stroke-width="1" stroke-linecap="butt" stroke-linejoin="miter" opacity="0.4" d="M 564.581 407.523 C 564.733 425.781 549.047 433.481 538.206 436.616 C 539.041 436.986 539.860 437.317 540.643 437.585 C 544.643 438.585 566.643 436.585 567.643 432.585 C 568.643 428.585 568.643 411.585 564.643 407.585 C 564.626 407.568 564.599 407.540 564.581 407.523 Z " transform="matrix(0.6396360397338867, 0, 0, 0.6396360397338867, -42.1, -250.25)"/>
      </g>
    </g>
  </g>
</svg>