<svg xmlns="http://www.w3.org/2000/svg" xmlns:svg="http://www.w3.org/2000/svg" id="svg2" width="58" height="70" version="1.1" viewBox="-1 -1 58 70"><metadata id="metadata23"/><path id="R_Arm_2_" d="m 34.274464,56.003102 c 0,0 3.006379,4.13892 0.867786,5.695963 -1.148273,0.840756 -2.742166,-0.822633 -3.182521,-1.424467 -0.637557,-0.873661 -0.847683,-1.083969 -0.983619,-2.179384 -0.135457,-1.093029 -0.674891,-5.112251 -0.45615,-6.567239 0.344147,-2.280007 1.919373,-6.074613 3.061902,-0.764453 0,0 0.359942,3.007262 0.646652,5.01735 l 0.04595,0.22223 0,0 0,0 0,0 0,0 0,0 0,0 0,0 0,0 0,0 0,0 0,0 0,0 0,0 0,0 0,0 0,0 0,0 0,0 0,0 0,0 0,0 0,0 0,0 0,0 0,0 0,0 0,0 0,0 0,0 0,0 0,0 0,0 0,0 0,0 0,0 0,0 0,0 0,0 z m -0.650481,-0.835033 0.650481,0.835033" style="fill:#f05a28;stroke:#000;stroke-width:.47776702;stroke-linecap:round"/><g id="Body_1_" transform="matrix(0.52972561,0,0,0.52972561,-1.1279661,-0.53389831)"><path id="Body_2_" d="m 70.547,109.103 c -0.432,2.871 -1.583,10.348 -1.398,11.826 l -0.269,-0.603 c 0.552,1.56 1.11,3.779 0.933,6.086 -0.344,4.479 -2.803,6.879 -5.416,8.16 l -0.03,0.146 -2.242,8.942 c 0.043,-0.001 0.424,0.022 3.106,0.281 3.398,0.326 1.816,2.373 1.816,2.373 l -6.334,-0.113 -0.324,-0.004 -12.799,-0.229 c -0.157,-0.521 -0.032,-2.132 0.779,-6.207 0.313,-1.601 0.603,-2.978 0.856,-4.104 l 0.002,-0.008 c -4.324,-3.361 -3.805,-8.562 -2.487,-12.242 0.84,-2.354 5.635,-20.123 5.635,-20.123 0,0 2.084,-6.824 10.709,-4.449 0,0 9.928,1.652 7.464,10.264 0,0.003 -0.001,0.003 -0.001,0.004 l 0,0 0,0 0,0 0,0 0,0 0,0 0,0 0,0 0,0 0,0 0,0 0,0 0,0 0,0 0,0 0,0 0,0 0,0 0,0 0,0 0,0 0,0 0,0 0,0 0,0 0,0 0,0 0,0 0,0 0,0 0,0 0,0 0,0 0,0 0,0 0,0 0,0 0,0 z m -12.63,26.641 c 0,0 2.542,0.41 6.479,-1.17 m 4.752,-13.644 c -0.225,-1.032 -1.564,-2.854 -1.564,-2.854 m -17.583,14.418 c 0,0 -0.289,0.902 -0.774,3.158" transform="matrix(0.90357447,0,0,0.90025681,-0.05,-0.45)" style="fill:#f05a28;stroke:#000;stroke-linecap:round;stroke-linejoin:round"/><path id="Leg_Separation" d="m 60.992,146.085 c -0.008,0 -0.016,0 -0.021,0 -0.277,-0.013 -0.491,-0.246 -0.479,-0.521 0.011,-0.248 -0.055,-0.438 -0.206,-0.6 -0.636,-0.674 -2.563,-0.704 -3.715,-0.722 -0.346,-0.005 -0.654,-0.01 -0.896,-0.026 -0.151,-0.011 -0.29,-0.09 -0.376,-0.214 -0.086,-0.125 -0.112,-0.282 -0.069,-0.428 0.413,-1.394 0.813,-2.804 1.213,-4.213 l 0.506,-1.78 c 0.076,-0.266 0.35,-0.424 0.618,-0.343 0.266,0.075 0.419,0.353 0.344,0.618 l -0.506,1.777 c -0.341,1.204 -0.683,2.41 -1.033,3.604 0.069,0.001 0.141,0.002 0.214,0.004 1.478,0.021 3.502,0.053 4.428,1.035 0.34,0.359 0.5,0.807 0.479,1.327 -0.014,0.272 -0.235,0.482 -0.501,0.482 l 0,0 0,0 0,0 0,0 0,0 0,0 0,0 0,0 0,0 0,0 0,0 0,0 0,0 0,0 0,0 0,0 0,0 0,0 0,0 0,0 0,0 0,0 0,0 0,0 0,0 0,0 0,0 0,0 0,0 0,0 0,0 0,0 0,0 0,0 0,0 0,0 0,0 0,0 0,0 z" transform="matrix(0.90357447,0,0,0.90025681,-0.05,-0.45)"/></g><path id="L_Arm_2_" d="m 24.670899,52.848957 -1.570439,2.575678 0.0072,-0.04483 c 0.05074,1.809795 -0.07228,4.952494 -1.518267,5.467534 -0.778758,0.275642 -2.609581,0.719149 -2.443012,-4.259097 0.133542,-4.01016 3.727221,-7.553922 5.119125,-8.77905 0,0 1.238737,0.68672 1.287559,2.011995 0.04834,1.326228 -0.883103,3.02586 -0.882146,3.027768 l 0,0 0,0 0,0 0,0 0,0 0,0 0,0 0,0 0,0 0,0 0,0 0,0 0,0 0,0 0,0 0,0 0,0 0,0 0,0 0,0 0,0 0,0 0,0 0,0 0,0 0,0 0,0 0,0 0,0 0,0 0,0 0,0 0,0 0,0 0,0 0,0 0,0 0,0 z m -1.563259,2.530851 c 0,-0.767792 -0.213477,-1.244681 -0.213477,-1.244681" style="fill:#f05a28;stroke:#000;stroke-width:.47776702;stroke-linecap:round"/><path id="Head_2_" d="m 8.3366069,18.496251 c 0,0 0.445142,-1.817901 4.2331501,-5.681656 3.786095,-3.8618483 7.884745,-5.1918923 10.602979,-6.3020903 2.718233,-1.110198 4.543313,-6.65737201 4.543313,-6.65737201 0,0 2.502843,3.10168701 5.075089,5.92200901 2.624898,2.876118 8.737214,5.3969543 15.287014,11.9651483 0.781629,0.78639 1.445991,1.6095 2.004571,2.454071 l 0.11344,0.09872 c 1.462743,1.264233 6.651751,6.307812 5.985953,13.650951 -0.508322,5.594863 -3.061423,7.36269 -4.299682,7.837195 l -0.01005,0.04101 C 52.509941,40.565726 52.889508,39.22996 53.069,37.874164 53.661086,33.390453 51.235784,30.477614 49.68114,26.577615 47.665559,21.520683 42.15203,18.675563 35.013016,18.817199 21.425677,19.08521 18.433179,26.695884 18.433179,26.695884 l -0.01005,0.09872 c 2.520553,4.663975 3.527146,15.00913 -1.634099,18.105094 C 11.22955,48.229815 2.9977865,47.067636 -0.2081881,34.200214 -3.1427701,22.423915 5.6442233,18.713718 8.2289147,18.744239 l 0.1076952,-0.247983 0,0 0,0 0,0 0,0 0,0 0,0 0,0 0,0 0,0 0,0 0,0 0,0 0,0 0,0 0,0 0,0 0,0 0,0 0,0 0,0 0,0 0,0 0,0 0,0 0,0 0,0 0,0 0,0 0,0 0,0 0,0 0,0 0,0 0,0 0,0 0,0 0,0 0,0 z m 41.7456381,1.70011 c 0,0 3.564959,5.643029 2.40472,12.616578 M 8.2289117,18.743757 c 2.4994923,0.06724 4.1747553,1.849853 4.1747553,1.849853 m 6.01898,6.200035 c -0.42073,-0.653815 -0.71414,-1.192223 -0.71414,-1.192223" style="fill:#f05a28;stroke:#000;stroke-width:.47776702;stroke-linecap:round"/><path id="R_Ear" d="m 52.653055,39.909526 c 0,0 1.12482,-2.032978 1.883953,-5.760344 0.758176,-3.729272 -0.253682,-8.800034 -0.253682,-8.800034 1.256447,2.270469 2.208475,5.184261 1.900705,8.59688 -0.493006,5.450842 -3.031747,7.309756 -4.300639,7.837195 l 0.769663,-1.873697 0,0 0,0 0,0 0,0 0,0 0,0 0,0 0,0 0,0 0,0 0,0 0,0 0,0 0,0 0,0 0,0 0,0 0,0 0,0 0,0 0,0 0,0 0,0 0,0 0,0 0,0 0,0 0,0 0,0 0,0 0,0 0,0 0,0 0,0 0,0 0,0 0,0 0,0 z" style="fill:#404041;stroke:#000;stroke-width:.47776702"/><g id="L_Ear" transform="matrix(0.52972561,0,0,0.52972561,-1.1279661,-0.53389831)"><path id="Outer_Ear" d="m 2.846,75.763 c 1.201,4.638 3.996,10.063 5.435,12.54 1.435,2.48 4.953,6.315 9.022,8.547 4.072,2.237 6.09,1.979 6.09,1.979 6.162,-2.797 8.533,-15.012 5.281,-28.388 -3.455,-14.19 -11.942,-24.311 -18.963,-22.6 -3.75,0.91 -7.157,4.664 -8.145,10.457 -0.961,5.615 0.082,12.835 1.28,17.465 l 0,0 0,0 0,0 0,0 0,0 0,0 0,0 0,0 0,0 0,0 0,0 0,0 0,0 0,0 0,0 0,0 0,0 0,0 0,0 0,0 0,0 0,0 0,0 0,0 0,0 0,0 0,0 0,0 0,0 0,0 0,0 0,0 0,0 0,0 0,0 0,0 0,0 0,0 z" transform="matrix(0.90357447,0,0,0.90025681,-0.05,-0.45)" style="fill:#404041;stroke:#231f20"/><path id="Inner_Ear" d="m 7.208,63.963 c 2.701,-1.157 7.285,3.496 10.24,10.397 2.952,6.896 3.159,13.431 0.461,14.587 C 15.206,90.102 10.624,85.447 7.671,78.548 4.714,71.65 4.509,65.12 7.208,63.963 l 0,0 0,0 0,0 0,0 0,0 0,0 0,0 0,0 0,0 0,0 0,0 0,0 0,0 0,0 0,0 0,0 0,0 0,0 0,0 0,0 0,0 0,0 0,0 0,0 0,0 0,0 0,0 0,0 0,0 0,0 0,0 0,0 0,0 0,0 0,0 0,0 0,0 0,0 z M 19.087,87.82 C 7.965,80.771 8.089,63.789 8.089,63.789" transform="matrix(0.90357447,0,0,0.90025681,-0.05,-0.45)" style="fill:#929497;stroke:#231f20;stroke-linecap:round"/></g><path id="Face" d="m 16.346279,45.203472 c 0.622719,0.423954 5.225863,3.482721 10.224847,4.724063 3.310798,0.824541 2.483219,2.438334 2.483219,2.438334 0,0 0.133542,-0.487858 2.716797,-1.599963 2.584213,-1.106383 2.273571,-0.129237 9.981695,-1.952384 7.707646,-1.816947 10.699187,-6.273953 11.318077,-10.939836 0.592564,-4.483711 -1.833216,-7.39655 -3.387382,-11.296549 -2.016059,-5.056932 -7.528631,-7.902052 -14.667645,-7.760416 -13.589733,0.267058 -16.582231,7.878685 -16.582231,7.878685 l -0.02058,0.08203 c 2.526297,4.653007 3.543421,15.022006 -1.624526,18.121785 -0.155081,0.09252 -0.312078,0.182172 -0.470988,0.268012 l 0.02872,0.03624 0,0 0,0 0,0 0,0 0,0 0,0 0,0 0,0 0,0 0,0 0,0 0,0 0,0 0,0 0,0 0,0 0,0 0,0 0,0 0,0 0,0 0,0 0,0 0,0 0,0 0,0 0,0 0,0 0,0 0,0 0,0 0,0 0,0 0,0 0,0 0,0 0,0 0,0 z" style="fill:#e6e7e8;stroke:#000;stroke-width:.47776702;stroke-linecap:round"/><path id="Mouth" d="m 30.819593,36.659527 c 0,0 3.441469,1.603778 7.217033,1.326228 3.774128,-0.275642 4.16231,-1.715847 4.16231,-1.715847" style="fill:none;stroke:#231f20;stroke-width:.47776702;stroke-linecap:round"/><path id="Left_Eye" d="m 26.86786,27.824888 c 0.532367,0 1.014519,0.215581 1.363987,0.56336 0.34906,0.348185 0.565437,0.828567 0.565437,1.358979 0,0.530413 -0.216377,1.010795 -0.565437,1.35898 -0.349468,0.347778 -0.83162,0.56336 -1.363987,0.56336 -0.532368,0 -1.01452,-0.215582 -1.363988,-0.56336 -0.34906,-0.348185 -0.565437,-0.828567 -0.565437,-1.35898 0,-0.530412 0.216377,-1.010794 0.565437,-1.358979 0.349468,-0.347779 0.83162,-0.56336 1.363988,-0.56336 l 0,0 0,0 0,0 0,0 0,0 0,0 0,0 0,0 0,0 0,0 0,0 0,0 0,0 0,0 0,0 0,0 0,0 0,0 0,0 0,0 0,0 0,0 0,0 0,0 0,0 0,0 0,0 0,0 0,0 0,0 0,0 0,0 0,0 0,0 0,0 0,0 0,0 z" style="fill:#fff;stroke:#000;stroke-width:1.39837098"/><path id="path17" d="m 44.26786,27.724888 c 0.532367,0 1.014519,0.215581 1.363987,0.56336 0.34906,0.348185 0.565437,0.828567 0.565437,1.358979 0,0.530413 -0.216377,1.010795 -0.565437,1.35898 -0.349468,0.347778 -0.83162,0.56336 -1.363987,0.56336 -0.532368,0 -1.01452,-0.215582 -1.363988,-0.56336 -0.34906,-0.348185 -0.565437,-0.828567 -0.565437,-1.35898 0,-0.530412 0.216377,-1.010794 0.565437,-1.358979 0.349468,-0.347779 0.83162,-0.56336 1.363988,-0.56336 l 0,0 0,0 0,0 0,0 0,0 0,0 0,0 0,0 0,0 0,0 0,0 0,0 0,0 0,0 0,0 0,0 0,0 0,0 0,0 0,0 0,0 0,0 0,0 0,0 0,0 0,0 0,0 0,0 0,0 0,0 0,0 0,0 0,0 0,0 0,0 0,0 0,0 z" style="fill:#fff;stroke:#000;stroke-width:1.39837098"/></svg>