<svg version="1.1" width="215" height="253" viewBox="-1 -1 215 253" xmlns="http://www.w3.org/2000/svg" xmlns:xlink="http://www.w3.org/1999/xlink">
  <defs>
    <linearGradient id="grad_1" x2="1">
      <stop offset="0" stop-color="#995900" stop-opacity="1"/>
      <stop offset="1" stop-color="#CC7700" stop-opacity="1"/>
    </linearGradient>
    <radialGradient id="grad_2" cx="0.4989" cy="0.5192" r="0.6749600000000001">
      <stop offset="0" stop-color="#FF9400" stop-opacity="1"/>
      <stop offset="1" stop-color="#CC7700" stop-opacity="1"/>
    </radialGradient>
    <radialGradient id="grad_3" cx="0.4989" cy="0.5192" r="0.6749600000000001">
      <stop offset="0" stop-color="#FF9400" stop-opacity="1"/>
      <stop offset="1" stop-color="#CC7700" stop-opacity="1"/>
    </radialGradient>
    <radialGradient id="grad_4" cx="0.4989" cy="0.5192" r="0.6749600000000001">
      <stop offset="0" stop-color="#FF9400" stop-opacity="1"/>
      <stop offset="1" stop-color="#CC7700" stop-opacity="1"/>
    </radialGradient>
    <radialGradient id="grad_5" cx="0.4989" cy="0.5192" r="0.6749600000000001">
      <stop offset="0" stop-color="#FF9400" stop-opacity="1"/>
      <stop offset="1" stop-color="#CC7700" stop-opacity="1"/>
    </radialGradient>
    <radialGradient id="grad_6" cx="0.4989" cy="0.5192" r="0.6749600000000001">
      <stop offset="0" stop-color="#FF9400" stop-opacity="1"/>
      <stop offset="1" stop-color="#CC7700" stop-opacity="1"/>
    </radialGradient>
    <radialGradient id="grad_7" cx="0.4989" cy="0.5192" r="0.6749600000000001">
      <stop offset="0" stop-color="#FF9400" stop-opacity="1"/>
      <stop offset="1" stop-color="#CC7700" stop-opacity="1"/>
    </radialGradient>
    <radialGradient id="grad_8" cx="0.4989" cy="0.5192" r="0.6749600000000001">
      <stop offset="0" stop-color="#FF9400" stop-opacity="1"/>
      <stop offset="1" stop-color="#CC7700" stop-opacity="1"/>
    </radialGradient>
    <radialGradient id="grad_9" cx="0.4989" cy="0.5192" r="0.6749600000000001">
      <stop offset="0" stop-color="#FF9400" stop-opacity="1"/>
      <stop offset="1" stop-color="#CC7700" stop-opacity="1"/>
    </radialGradient>
    <radialGradient id="grad_10" cx="0.4989" cy="0.5192" r="0.6749600000000001">
      <stop offset="0" stop-color="#FF9400" stop-opacity="1"/>
      <stop offset="1" stop-color="#CC7700" stop-opacity="1"/>
    </radialGradient>
    <radialGradient id="grad_11" cx="0.4989" cy="0.5192" r="0.6749600000000001">
      <stop offset="0" stop-color="#FF9400" stop-opacity="1"/>
      <stop offset="1" stop-color="#CC7700" stop-opacity="1"/>
    </radialGradient>
  </defs>
  <!-- Exported by Scratch - http://scratch.mit.edu/ -->
  <path id="ID0.13979481859132648" fill="url(#grad_1)" stroke="none" stroke-linecap="round" d="M 249.700 107.150 C 268.453 106.413 285.354 121.613 298.950 134.550 C 308.429 143.571 312.855 157.300 315.800 170.050 C 319.046 184.106 319.556 199.127 317.150 213.350 C 314.676 227.962 312.435 245.822 300.750 255.700 C 287.201 266.987 267.331 271.306 249.250 270.300 C 229.023 269.172 205.267 264.465 192.300 248.900 C 178.975 232.904 179.462 208.510 180 187.800 C 180.717 170.578 184.770 151.553 195.950 138.600 C 209.500 122.902 228.978 107.965 249.700 107.150 Z " transform="matrix(1.5370149612426758, 0, 0, 1.5370149612426758, -276.25, -163.65)"/>
  <path id="ID0.5153961447067559" fill="url(#grad_2)" stroke="#CC7700" stroke-width="2" stroke-linecap="round" d="M 221 189.500 C 224.646 189.158 228.575 188.201 232 189.500 C 234.030 190.270 235.582 192.833 235.500 195 C 235.397 197.735 233.596 200.687 231 202 C 229.108 203.224 226.452 202.101 224 201.500 C 221.387 200.863 218.839 199.826 216.500 198.500 C 214.956 197.629 213.041 196.675 212.500 195 C 212.127 193.650 213.478 191.849 215 191 C 216.560 189.855 218.687 189.720 221 189.500 Z " transform="matrix(1.1565171480178833, 0, 0, 1.1565171480178833, -161.6, -65.5)"/>
  <path id="ID0.5153961447067559" fill="url(#grad_3)" stroke="#CC7700" stroke-width="2" stroke-linecap="round" d="M 224.800 185.900 C 229.802 187.653 236.389 189.281 238.350 194.150 C 239.453 197.912 234.404 201.860 231.100 203.650 C 228.938 204.813 226.053 202.781 224 201.500 C 220.152 199.070 217.858 195.902 217.350 193.450 C 217.145 191.820 217.331 189.583 218.650 188.150 C 220.130 186.747 222.732 185.212 224.800 185.900 Z " transform="matrix(-1.1244053840637207, 0.2706370949745178, -0.2706370949745178, -1.1244053840637207, 475.3, 257.8)"/>
  <path id="ID0.5153961447067559" fill="url(#grad_4)" stroke="#CC7700" stroke-width="2" stroke-linecap="round" d="M 221 189.500 C 224.646 189.158 228.575 188.201 232 189.500 C 234.030 190.270 235.582 192.833 235.500 195 C 235.397 197.735 233.596 200.687 231 202 C 229.108 203.224 226.452 202.101 224 201.500 C 221.387 200.863 218.839 199.826 216.500 198.500 C 214.956 197.629 213.041 196.675 212.500 195 C 212.127 193.650 213.478 191.849 215 191 C 216.560 189.855 218.687 189.720 221 189.500 Z " transform="matrix(-1.1244053840637207, 0.2706370949745178, -0.2706370949745178, -1.1244053840637207, 337.95, 367.45)"/>
  <path id="ID0.5153961447067559" fill="url(#grad_5)" stroke="#CC7700" stroke-width="2" stroke-linecap="round" d="M 221 189.500 C 224.646 189.158 228.575 188.201 232 189.500 C 234.030 190.270 235.582 192.833 235.500 195 C 235.397 197.735 233.596 200.687 231 202 C 229.108 203.224 226.452 202.101 224 201.500 C 221.387 200.863 218.839 199.826 216.500 198.500 C 214.956 197.629 213.041 196.675 212.500 195 C 212.127 193.650 213.478 191.849 215 191 C 216.560 189.855 218.687 189.720 221 189.500 Z " transform="matrix(-0.9256606101989746, 0.22280050814151764, -0.2706370949745178, -1.1244053840637207, 433.9, 371.3)"/>
  <path id="ID0.5153961447067559" fill="url(#grad_6)" stroke="#CC7700" stroke-width="2" stroke-linecap="round" d="M 224.800 185.900 C 229.802 187.653 236.389 189.281 238.350 194.150 C 239.453 197.912 234.404 201.860 231.100 203.650 C 228.938 204.813 226.053 202.781 224 201.500 C 220.152 199.070 217.858 195.902 217.350 193.450 C 217.145 191.820 217.331 189.583 218.650 188.150 C 220.130 186.747 222.732 185.212 224.800 185.900 Z " transform="matrix(-0.3787470757961273, 0.09116196632385254, -0.09116196632385254, -0.3787470757961273, 151.1, 171.45)"/>
  <path id="ID0.5153961447067559" fill="url(#grad_7)" stroke="#CC7700" stroke-width="2" stroke-linecap="round" d="M 224.800 185.900 C 229.802 187.653 236.389 189.281 238.350 194.150 C 239.453 197.912 234.404 201.860 231.100 203.650 C 228.938 204.813 226.053 202.781 224 201.500 C 220.152 199.070 217.858 195.902 217.350 193.450 C 217.145 191.820 217.331 189.583 218.650 188.150 C 220.130 186.747 222.732 185.212 224.800 185.900 Z " transform="matrix(-0.3787470757961273, 0.09116196632385254, -0.09116196632385254, -0.3787470757961273, 216, 265.65)"/>
  <path id="ID0.5153961447067559" fill="url(#grad_8)" stroke="#CC7700" stroke-width="2" stroke-linecap="round" d="M 224.800 185.900 C 229.802 187.653 236.389 189.281 238.350 194.150 C 239.453 197.912 234.404 201.860 231.100 203.650 C 228.938 204.813 226.053 202.781 224 201.500 C 220.152 199.070 217.858 195.902 217.350 193.450 C 217.145 191.820 217.331 189.583 218.650 188.150 C 220.130 186.747 222.732 185.212 224.800 185.900 Z " transform="matrix(-0.3787470757961273, 0.09116196632385254, -0.09116196632385254, -0.3787470757961273, 308.9, 203.7)"/>
  <path id="ID0.5153961447067559" fill="url(#grad_9)" stroke="#CC7700" stroke-width="2" stroke-linecap="round" d="M 224.800 185.900 C 229.802 187.653 236.389 189.281 238.350 194.150 C 239.453 197.912 234.404 201.860 231.100 203.650 C 228.938 204.813 226.053 202.781 224 201.500 C 220.152 199.070 217.858 195.902 217.350 193.450 C 217.145 191.820 217.331 189.583 218.650 188.150 C 220.130 186.747 222.732 185.212 224.800 185.900 Z " transform="matrix(-0.3787470757961273, 0.09116196632385254, -0.09116196632385254, -0.3787470757961273, 138.35, 111.7)"/>
  <path id="ID0.5153961447067559" fill="url(#grad_10)" stroke="#CC7700" stroke-width="2" stroke-linecap="round" d="M 224.800 185.900 C 229.802 187.653 236.389 189.281 238.350 194.150 C 239.453 197.912 234.404 201.860 231.100 203.650 C 228.938 204.813 226.053 202.781 224 201.500 C 220.152 199.070 217.858 195.902 217.350 193.450 C 217.145 191.820 217.331 189.583 218.650 188.150 C 220.130 186.747 222.732 185.212 224.800 185.900 Z " transform="matrix(-0.3787470757961273, 0.09116196632385254, -0.09116196632385254, -0.3787470757961273, 293.6, 126.1)"/>
  <path id="ID0.5153961447067559" fill="url(#grad_11)" stroke="#CC7700" stroke-width="2" stroke-linecap="round" d="M 221 189.500 C 224.646 189.158 228.575 188.201 232 189.500 C 234.030 190.270 235.582 192.833 235.500 195 C 235.397 197.735 233.596 200.687 231 202 C 229.108 203.224 226.452 202.101 224 201.500 C 221.387 200.863 218.839 199.826 216.500 198.500 C 214.956 197.629 213.041 196.675 212.500 195 C 212.127 193.650 213.478 191.849 215 191 C 216.560 189.855 218.687 189.720 221 189.500 Z " transform="matrix(-0.9256606101989746, 0.22280050814151764, -0.2706370949745178, -1.1244053840637207, 382.1, 191.8)"/>
  <path id="ID0.9488389943726361" fill="#FFFFFF" stroke="#000000" stroke-width="2" d="M 220.525 92.150 C 224.850 92.150 228.768 93.668 231.606 96.121 C 234.444 98.574 236.200 101.962 236.200 105.700 C 236.200 109.438 234.444 112.826 231.606 115.279 C 228.768 117.732 224.850 119.250 220.525 119.250 C 216.200 119.250 212.282 117.732 209.444 115.279 C 206.606 112.826 204.850 109.438 204.850 105.700 C 204.850 101.962 206.606 98.574 209.444 96.121 C 212.282 93.668 216.200 92.150 220.525 92.150 Z " transform="matrix(0.8149830102920532, 0, 0, 0.9386355876922607, -99.85, -32)"/>
  <path id="ID0.015739436261355877" fill="#000000" stroke="none" d="M 277.500 123.750 C 279.224 123.750 280.787 124.436 281.918 125.545 C 283.050 126.654 283.750 128.185 283.750 129.875 C 283.750 131.565 283.050 133.096 281.918 134.205 C 280.787 135.314 279.224 136 277.500 136 C 275.776 136 274.213 135.314 273.082 134.205 C 271.950 133.096 271.250 131.565 271.250 129.875 C 271.250 128.185 271.950 126.654 273.082 125.545 C 274.213 124.436 275.776 123.750 277.500 123.750 Z " transform="matrix(0.8352453708648682, 0, 0, 0.8352453708648682, -153.5, -40.85)"/>
  <path id="ID0.9488389943726361" fill="#FFFFFF" stroke="#000000" stroke-width="2" d="M 220.525 92.150 C 224.850 92.150 228.768 93.668 231.606 96.121 C 234.444 98.574 236.200 101.962 236.200 105.700 C 236.200 109.438 234.444 112.826 231.606 115.279 C 228.768 117.732 224.850 119.250 220.525 119.250 C 216.200 119.250 212.282 117.732 209.444 115.279 C 206.606 112.826 204.850 109.438 204.850 105.700 C 204.850 101.962 206.606 98.574 209.444 96.121 C 212.282 93.668 216.200 92.150 220.525 92.150 Z " transform="matrix(0.8149830102920532, 0, 0, 0.9386355876922607, -60.6, -29.65)"/>
  <path id="ID0.015739436261355877" fill="#000000" stroke="none" d="M 277.500 123.750 C 279.224 123.750 280.787 124.436 281.918 125.545 C 283.050 126.654 283.750 128.185 283.750 129.875 C 283.750 131.565 283.050 133.096 281.918 134.205 C 280.787 135.314 279.224 136 277.500 136 C 275.776 136 274.213 135.314 273.082 134.205 C 271.950 133.096 271.250 131.565 271.250 129.875 C 271.250 128.185 271.950 126.654 273.082 125.545 C 274.213 124.436 275.776 123.750 277.500 123.750 Z " transform="matrix(0.8244317173957825, 0, 0, 0.8244317173957825, -107.1, -35.25)"/>
  <path id="ID0.8510319120250642" fill="none" stroke="#000000" stroke-width="2" stroke-linecap="round" d="M 228 177 L 250.500 177 " transform="matrix(3.6876442432403564, 0, 0, 3.6876442432403564, -780.6, -482.6)"/>
</svg>