<svg xmlns="http://www.w3.org/2000/svg" xmlns:xlink="http://www.w3.org/1999/xlink" width="387" height="287" version="1.1" viewBox="-1 -1 387 287"><g id="svg_1"><path id="svg_22" fill="#07703a" stroke="#000" stroke-linecap="null" stroke-linejoin="null" stroke-width="5" d="M 531.815 291.430 C 531.815 291.430 548.673 293.155 548.059 292.257 C 547.447 291.361 557.868 298.329 562.466 296.604 C 567.063 294.880 573.192 287.979 575.645 278.459 C 578.098 268.939 570.127 263.832 564.917 261.211 C 559.707 258.590 557.868 246.586 557.254 245.688 C 556.642 244.792 571.661 248.311 563.998 232.788 C 556.336 217.265 551.738 224.164 551.124 223.266 C 550.512 222.370 539.476 224.162 537.331 219.817 C 535.187 215.471 548.673 213.815 541.010 203.467 C 533.347 193.118 524.152 201.742 523.538 200.844 C 522.926 199.948 516.489 217.265 515.876 216.367 C 515.263 215.471 518.020 218.988 509.745 230.165 C 501.470 241.343 522.619 241.412 522.006 240.514 C 521.394 239.618 537.945 248.311 537.945 248.311 C 537.945 248.311 537.943 256.933 535.799 262.936 C 533.654 268.939 524.152 269.008 523.538 268.110 C 522.926 267.214 521.087 281.081 520.473 280.184 C 519.861 279.288 531.815 291.430 531.815 291.430 Z" transform="matrix(0.69737309217453, 0, 0, 0.69737309217453, -19.5, -24.8)"/><path id="svg_23" fill="#6b0c0c" stroke="#000" stroke-linecap="null" stroke-linejoin="null" stroke-width="5" d="M 501.164 415.304 C 501.164 415.304 525.076 419.149 524.392 418.149 C 523.710 417.150 542.156 409.535 542.156 409.535 C 542.156 409.535 547.280 394.152 545.572 388.384 C 543.864 382.616 538.738 369.154 534.640 368.155 C 530.542 367.156 519.952 376.847 519.268 375.846 C 518.586 374.847 504.580 369.156 503.896 368.155 C 503.214 367.156 506.288 396.075 506.288 396.075 C 506.288 396.075 501.164 415.304 501.164 415.304 Z" transform="matrix(0.69737309217453, 0, 0, 0.69737309217453, -19.5, -24.8)"/><path id="svg_24" fill="#6b156b" stroke="#000" stroke-linecap="null" stroke-linejoin="null" stroke-width="5" d="M 539.478 351.797 C 540.174 352.281 557.868 362.146 557.868 362.146 C 557.868 362.146 573.194 350.072 573.194 350.072 C 573.194 350.072 577.791 324.201 577.791 324.201 C 577.791 324.201 576.259 310.402 574.113 306.056 C 571.967 301.710 563.999 298.329 563.385 297.432 C 562.772 296.535 551.738 296.604 551.125 295.707 C 550.512 294.811 536.413 305.228 535.799 304.331 C 535.186 303.434 533.347 322.476 532.734 321.579 C 532.121 320.682 548.673 332.824 548.060 331.928" transform="matrix(0.69737309217453, 0, 0, 0.69737309217453, -19.5, -24.8)"/><path id="svg_3" fill="#6ead2e" stroke="#000" stroke-linecap="null" stroke-linejoin="null" stroke-width="5" d="M 46.940 272.242 C 34.667 277.421 48.474 246.344 36.201 251.524 C 23.928 256.703 45.406 234.259 45.406 234.259 C 45.406 234.259 45.406 227.353 33.133 222.173 C 20.860 216.994 46.940 208.361 46.940 208.361 C 46.940 208.361 46.940 189.370 46.940 184.190 C 46.940 179.011 73.019 185.917 73.019 185.917 C 73.019 185.917 74.553 172.105 76.087 160.019 C 77.621 147.934 94.496 156.566 94.496 156.566 C 94.496 156.566 92.962 135.848 92.962 130.669 C 92.962 125.489 102.167 127.216 112.905 130.669 C 123.644 134.122 132.848 120.310 137.451 115.130 C 142.053 109.951 151.257 115.130 152.791 120.310 C 154.326 125.489 145.121 135.848 145.121 135.848 C 145.121 135.848 155.860 146.207 149.723 154.840 C 143.587 163.472 114.439 189.370 114.439 189.370 C 114.439 189.370 79.155 222.173 79.155 222.173 C 79.155 222.173 62.280 246.344 62.280 246.344 C 62.280 246.344 59.212 267.062 46.940 272.242 Z" transform="matrix(0.69737309217453, 0, 0, 0.69737309217453, -19.5, -24.8)"/><path id="svg_4" fill="#3f7f00" stroke="#000" stroke-linecap="null" stroke-linejoin="null" stroke-width="5" d="M 134.389 109.949 C 134.389 109.949 128.252 85.778 128.252 85.778 C 128.252 85.778 143.593 70.240 143.593 70.240 C 143.593 70.240 155.866 58.154 158.934 63.334 C 162.002 68.513 174.275 82.325 180.411 80.599 C 186.547 78.872 189.616 73.693 191.150 65.060 C 192.684 56.428 200.354 65.060 204.957 56.428 C 209.559 47.795 217.229 66.787 220.297 66.787 C 223.366 66.787 232.570 56.428 232.570 56.428 C 232.570 56.428 238.706 39.163 243.309 39.163 C 247.911 39.163 255.581 47.795 258.650 47.795 C 261.718 47.795 278.593 40.889 273.990 40.889 C 269.388 40.889 287.797 47.795 287.797 51.248 C 287.797 54.701 280.127 73.693 280.127 73.693 C 280.127 73.693 269.388 84.052 269.388 84.052 C 269.388 84.052 255.581 80.599 250.979 80.599 C 246.377 80.599 255.581 97.864 249.445 97.864 C 243.309 97.864 231.036 96.137 231.036 96.137 C 231.036 96.137 218.763 103.043 218.763 103.043 C 218.763 103.043 188.082 106.496 188.082 106.496 C 188.082 106.496 165.070 109.949 165.070 109.949 C 165.070 109.949 152.798 116.855 152.798 116.855 C 152.798 116.855 134.389 109.949 134.389 109.949 Z" transform="matrix(0.69737309217453, 0, 0, 0.69737309217453, -19.5, -24.8)"/><path id="svg_5" fill="#7f0000" stroke="#000" stroke-linecap="null" stroke-linejoin="null" stroke-width="5" d="M 151.259 153.115 C 151.259 153.115 143.589 135.850 145.123 132.397 C 146.657 128.944 151.259 120.312 151.259 120.312 C 151.259 120.312 171.202 113.406 171.202 113.406 C 171.202 113.406 191.145 106.500 191.145 106.500 C 191.145 106.500 208.020 103.047 208.020 103.047 C 208.020 103.047 220.293 106.500 220.293 106.500 C 220.293 106.500 215.691 120.312 215.691 120.312 C 215.691 120.312 215.691 132.397 215.691 132.397 C 215.691 132.397 185.009 142.756 185.009 142.756 C 185.009 142.756 165.066 151.389 165.066 151.389 C 165.066 151.389 151.259 153.115 151.259 153.115 Z" transform="matrix(0.69737309217453, 0, 0, 0.69737309217453, -19.5, -24.8)"/><path id="svg_13" fill="#59a80a" stroke="#000" stroke-linecap="null" stroke-linejoin="null" stroke-width="5" d="M 333.573 84.379 C 335.316 81.055 338.351 69.183 338.073 68.711 C 337.794 68.240 344.947 61.914 348.006 62.153 C 351.066 62.391 358.949 71.656 358.949 71.656 C 358.949 71.656 364.909 74.715 364.630 74.244 C 364.352 73.772 374.935 61.660 374.935 61.660 C 374.935 61.660 384.536 55.490 388.361 55.788 C 392.186 56.087 397.773 65.172 397.773 65.172 C 397.773 65.172 408.396 79.840 409.701 78.627 C 411.005 77.414 421.611 77.412 425.157 77.239 C 428.703 77.065 436.324 88.074 434.464 88.344 C 432.602 88.614 429.303 102.230 432.850 102.056 C 436.396 101.883 449.296 102.059 449.017 101.588 C 448.739 101.116 459.162 91.587 465.396 97.677 C 471.629 103.768 473.293 111.717 473.014 111.245 C 472.736 110.773 474.026 124.747 473.747 124.275 C 473.469 123.803 489.481 123.359 492.315 122.265 C 495.149 121.173 508.443 127.434 508.059 128.684 C 507.674 129.934 509.123 141.325 509.123 141.325 C 509.123 141.325 504.558 153.078 504.279 152.606 C 504.001 152.134 518.824 158.515 518.718 160.237 C 518.612 161.958 525.230 166.799 521.959 170.003 C 518.687 173.207 515.416 176.411 515.137 175.940 C 514.859 175.468 505.102 181.660 504.823 181.190 C 504.544 180.718 495.530 174.859 495.251 174.388 C 494.973 173.916 484.823 174.024 484.544 173.552 C 484.266 173.080 475.092 169.804 474.814 169.333 C 474.535 168.861 478.182 157.073 477.903 156.601 C 477.625 156.129 473.677 142.883 473.399 142.411 C 473.120 141.939 464.340 144.748 464.062 144.277 C 463.783 143.805 456.873 153.679 456.594 153.209 C 456.316 152.737 456.289 163.148 451.423 162.319 C 446.555 161.489 440.652 155.009 440.374 154.537 C 440.095 154.065 427.863 150.551 427.585 150.079 C 427.306 149.607 417.367 146.272 417.089 145.800 C 416.810 145.329 404.896 136.649 404.617 136.177 C 404.339 135.705 405.532 126.320 405.254 125.848 C 404.975 125.376 411.810 124.214 412.128 119.050 C 412.446 113.885 408.070 110.085 407.792 109.614 C 407.513 109.142 398.605 101.562 398.605 101.562 C 398.605 101.562 386.102 104.911 385.824 104.440 C 385.545 103.968 375.585 88.521 375.307 88.051 C 375.028 87.580 365.877 96.413 365.598 95.942 C 365.320 95.470 358.569 102.762 358.290 102.290 C 358.012 101.819 345.619 100.886 345.341 100.414 C 345.062 99.943 340.137 90.079 339.859 89.608 C 339.580 89.136 331.831 87.702 333.573 84.379 Z" transform="matrix(0.69737309217453, 0, 0, 0.69737309217453, -19.5, -24.8)"/><path id="svg_18" fill="#701570" stroke="#000" stroke-linecap="null" stroke-linejoin="null" stroke-width="5" d="M 425.221 168.247 C 425.795 168.549 429.821 149.278 425.221 142.375 C 420.620 135.473 405.298 128.577 404.684 127.679 C 404.072 126.783 381.544 118.225 375.566 119.055 C 369.587 119.886 362.386 135.476 361.773 134.578 C 361.160 133.682 362.383 149.272 364.838 148.376 C 367.292 147.480 394.570 157.898 394.570 157.898 C 394.570 157.898 425.221 168.247 425.221 168.247 Z" transform="matrix(0.69737309217453, 0, 0, 0.69737309217453, -19.5, -24.8)"/><path id="svg_21" fill="#3f7f00" stroke="#000" stroke-linecap="null" stroke-linejoin="null" stroke-width="5" d="M 413.264 174.719 C 405.087 173.569 410.705 135.621 420.926 147.123 C 431.148 158.625 433.698 130.441 437.172 147.950 C 440.647 165.458 450.045 155.746 449.433 154.849 C 448.819 153.953 460.773 133.324 460.159 132.427 C 459.547 131.531 471.500 129.870 473.953 142.775 C 476.406 155.681 465.370 167.818 469.867 174.974 C 474.363 182.131 489.891 166.095 489.279 165.197 C 488.665 164.301 507.262 160.342 504.605 172.096 C 501.947 183.850 499.086 185.068 498.474 184.170 C 497.861 183.274 498.579 192.536 493.877 199.693 C 489.175 206.849 514.412 202.315 513.800 201.417 C 513.186 200.521 531.271 205.186 524.528 213.491 C 517.784 221.795 516.457 220.133 513.800 230.739 C 511.143 241.345 520.542 245.435 519.930 244.537 C 519.316 243.641 537.402 245.435 533.723 244.537 C 530.043 243.641 557.328 250.031 544.451 258.335 C 531.574 266.639 534.335 269.581 533.723 268.684 C 533.109 267.788 532.295 267.277 524.528 279.032 C 516.761 290.788 531.268 279.923 539.853 292.830 C 548.438 305.738 532.803 305.802 532.190 304.904 C 531.577 304.008 528.206 316.722 527.593 320.427 C 526.979 324.132 545.063 333.398 544.451 332.500 C 543.837 331.604 552.727 343.170 549.048 344.574 C 545.368 345.977 534.847 347.193 532.190 353.197 C 529.533 359.202 537.913 371.343 532.190 370.445 C 526.467 369.549 517.480 374.216 513.800 375.620 C 510.121 377.025 509.814 336.848 509.202 335.950 C 508.589 335.054 502.152 304.077 501.539 303.179 C 500.926 302.283 492.956 271.306 492.344 270.408 C 491.730 269.512 480.696 245.435 480.082 244.537 C 479.470 243.641 463.838 219.563 463.226 218.665 C 462.612 217.769 443.915 193.691 443.302 192.794 C 442.689 191.898 427.056 179.893 426.444 178.995 C 425.831 178.099 421.440 175.869 413.264 174.719 Z" transform="matrix(0.69737309217453, 0, 0, 0.69737309217453, -19.5, -24.8)"/><path id="svg_2" fill="#ff7f00" stroke="#000" stroke-width="5" d="M 46.946 273.965 C 51.548 260.153 73.025 222.170 73.025 222.170 C 73.025 222.170 122.116 179.008 122.116 179.008 C 122.116 179.008 189.615 137.572 189.615 137.572 C 189.615 137.572 232.570 125.486 240.240 127.213 C 247.911 128.939 306.206 135.845 306.206 135.845 C 306.206 135.845 376.774 154.837 376.774 154.837 C 376.774 154.837 438.137 180.734 438.137 180.734 C 438.137 180.734 470.353 215.264 470.353 215.264 C 470.353 215.264 497.967 267.059 497.967 267.059 C 497.967 267.059 513.307 337.846 513.307 330.940 C 513.307 324.034 510.239 410.359 510.239 410.359 C 510.239 410.359 514.842 434.530 502.569 437.983 C 490.296 441.435 462.683 443.162 462.683 443.162 C 462.683 443.162 408.990 427.624 408.990 427.624 C 408.990 427.624 309.274 403.453 309.274 403.453 C 309.274 403.453 192.684 374.102 192.684 374.102 C 192.684 374.102 79.161 332.666 79.161 332.666 C 79.161 332.666 43.877 306.769 43.877 306.769 C 43.877 306.769 42.343 287.777 46.946 273.965 Z" transform="matrix(0.69737309217453, 0, 0, 0.69737309217453, -19.5, -24.8)"/><path id="svg_50" fill="#b7600e" stroke-linecap="null" stroke-linejoin="null" stroke-width="0" d="M 104.233 239.687 C 108.038 239.687 111.486 241.813 113.983 245.247 C 116.480 248.682 118.026 253.425 118.026 258.659 C 118.026 263.894 116.480 268.637 113.983 272.071 C 111.486 275.506 108.038 277.632 104.233 277.632 C 100.427 277.632 96.979 275.506 94.482 272.071 C 91.985 268.637 90.440 263.894 90.440 258.659 C 90.440 253.425 91.985 248.682 94.482 245.247 C 96.979 241.813 100.427 239.687 104.233 239.687 Z" transform="matrix(0.69737309217453, 0, 0, 0.69737309217453, -19.5, -24.8)"/><path id="svg_52" fill="#b7600e" stroke-linecap="null" stroke-linejoin="null" stroke-width="0" d="M 111.895 275.907 C 113.587 275.907 115.119 276.680 116.229 277.929 C 117.339 279.178 118.026 280.903 118.026 282.806 C 118.026 284.709 117.339 286.434 116.229 287.683 C 115.119 288.932 113.587 289.705 111.895 289.705 C 110.204 289.705 108.672 288.932 107.562 287.683 C 106.452 286.434 105.765 284.709 105.765 282.806 C 105.765 280.903 106.452 279.178 107.562 277.929 C 108.672 276.680 110.204 275.907 111.895 275.907 Z" transform="matrix(0.69737309217453, 0, 0, 0.69737309217453, -19.5, -24.8)"/><path id="svg_62" fill="#b7600e" stroke-linecap="null" stroke-linejoin="null" stroke-width="0" d="M 308.062 160.347 C 310.599 160.347 312.898 161.893 314.562 164.391 C 316.227 166.889 317.257 170.338 317.257 174.145 C 317.257 177.952 316.227 181.402 314.562 183.900 C 312.898 186.397 310.599 187.943 308.062 187.943 C 305.525 187.943 303.226 186.397 301.562 183.900 C 299.897 181.402 298.867 177.952 298.867 174.145 C 298.867 170.338 299.897 166.889 301.562 164.391 C 303.226 161.893 305.525 160.347 308.062 160.347 Z" transform="matrix(0.69737309217453, 0, 0, 0.69737309217453, -19.5, -24.8)"/><path id="svg_64" fill="#b7600e" stroke-linecap="null" stroke-linejoin="null" stroke-width="0" d="M 321.855 179.320 C 323.546 179.320 325.079 180.093 326.189 181.342 C 327.298 182.591 327.985 184.315 327.985 186.219 C 327.985 188.122 327.298 189.847 326.189 191.096 C 325.079 192.345 323.546 193.118 321.855 193.118 C 320.164 193.118 318.631 192.345 317.522 191.096 C 316.412 189.847 315.725 188.122 315.725 186.219 C 315.725 184.315 316.412 182.591 317.522 181.342 C 318.631 180.093 320.164 179.320 321.855 179.320 Z" transform="matrix(0.69737309217453, 0, 0, 0.69737309217453, -19.5, -24.8)"/><path id="svg_65" fill="#b7600e" stroke-linecap="null" stroke-linejoin="null" stroke-width="0" d="M 369.364 386.292 C 372.324 386.292 375.006 387.452 376.948 389.325 C 378.890 391.199 380.092 393.786 380.092 396.641 C 380.092 399.496 378.890 402.083 376.948 403.957 C 375.006 405.830 372.324 406.990 369.364 406.990 C 366.404 406.990 363.723 405.830 361.780 403.957 C 359.838 402.083 358.636 399.496 358.636 396.641 C 358.636 393.786 359.838 391.199 361.780 389.325 C 363.723 387.452 366.404 386.292 369.364 386.292 Z" transform="matrix(0.69737309217453, 0, 0, 0.69737309217453, -19.5, -24.8)"/><path id="svg_67" fill="#b7600e" stroke-linecap="null" stroke-linejoin="null" stroke-width="0" d="M 384.690 379.393 C 386.381 379.393 387.914 379.973 389.023 380.910 C 390.133 381.847 390.820 383.140 390.820 384.568 C 390.820 385.995 390.133 387.289 389.023 388.226 C 387.914 389.162 386.381 389.742 384.690 389.742 C 382.998 389.742 381.466 389.162 380.356 388.226 C 379.246 387.289 378.560 385.995 378.560 384.568 C 378.560 383.140 379.246 381.847 380.356 380.910 C 381.466 379.973 382.998 379.393 384.690 379.393 Z" transform="matrix(0.69737309217453, 0, 0, 0.69737309217453, -19.5, -24.8)"/><path id="svg_74" fill="#b7600e" stroke-linecap="null" stroke-linejoin="null" stroke-width="0" d="M 468.980 322.476 C 473.631 322.476 477.846 324.988 480.897 329.047 C 483.949 333.106 485.838 338.712 485.838 344.898 C 485.838 351.084 483.949 356.689 480.897 360.748 C 477.846 364.807 473.631 367.320 468.980 367.320 C 464.329 367.320 460.115 364.807 457.063 360.748 C 454.011 356.689 452.122 351.084 452.122 344.898 C 452.122 338.712 454.011 333.106 457.063 329.047 C 460.115 324.988 464.329 322.476 468.980 322.476 Z" transform="matrix(0.69737309217453, 0, 0, 0.69737309217453, -19.5, -24.8)"/><path id="svg_76" fill="#b7600e" stroke-linecap="null" stroke-linejoin="null" stroke-width="0" d="M 476.643 370.770 C 478.757 370.770 480.673 371.929 482.060 373.803 C 483.447 375.676 484.306 378.263 484.306 381.118 C 484.306 383.973 483.447 386.560 482.060 388.434 C 480.673 390.307 478.757 391.467 476.643 391.467 C 474.529 391.467 472.613 390.307 471.226 388.434 C 469.839 386.560 468.980 383.973 468.980 381.118 C 468.980 378.263 469.839 375.676 471.226 373.803 C 472.613 371.929 474.529 370.770 476.643 370.770 Z" transform="matrix(0.69737309217453, 0, 0, 0.69737309217453, -19.5, -24.8)"/><path id="svg_78" fill="#b7600e" stroke-linecap="null" stroke-linejoin="null" stroke-width="0" d="M 455.187 365.595 C 456.878 365.595 458.411 366.465 459.521 367.870 C 460.630 369.275 461.317 371.215 461.317 373.357 C 461.317 375.498 460.630 377.438 459.521 378.843 C 458.411 380.248 456.878 381.118 455.187 381.118 C 453.496 381.118 451.963 380.248 450.854 378.843 C 449.744 377.438 449.057 375.498 449.057 373.357 C 449.057 371.215 449.744 369.275 450.854 367.870 C 451.963 366.465 453.496 365.595 455.187 365.595 Z" transform="matrix(0.69737309217453, 0, 0, 0.69737309217453, -19.5, -24.8)"/><path id="svg_11" fill="#2ead2e" stroke="#000" stroke-linecap="null" stroke-linejoin="null" stroke-width="5" d="M 215.986 131.574 C 212.921 129.849 214.452 112.591 214.145 112.142 C 213.838 111.693 227.486 99.649 227.179 99.200 C 226.872 98.752 247.418 97.923 247.111 97.476 C 246.806 97.027 244.354 85.844 250.485 85.844 C 256.615 85.844 267.355 91.880 273.178 84.532 C 279.002 77.185 284.985 67.725 284.985 67.725 C 284.985 67.725 294.952 66.861 299.244 64.688 C 303.535 62.514 309.518 78.941 309.211 78.493 C 308.904 78.044 317.187 91.022 321.477 90.573 C 325.768 90.124 335.585 80.667 335.278 80.218 C 334.971 79.770 347.084 90.159 347.084 90.159 C 347.084 90.159 353.221 98.786 357.512 98.337 C 361.802 97.888 370.083 91.020 370.083 91.020 C 370.083 91.020 372.388 84.118 378.518 82.393 C 384.648 80.668 386.951 94.472 386.644 94.024 C 386.337 93.575 400.750 94.472 400.444 94.024 C 400.138 93.575 417.617 95.340 415.778 103.515 C 413.938 111.690 413.016 115.179 412.711 114.732 C 412.404 114.283 402.284 123.808 401.977 123.359 C 401.670 122.910 384.651 116.906 384.344 116.457 C 384.037 116.008 371.617 125.533 371.311 125.086 C 371.004 124.637 363.185 135.887 362.878 135.440 C 362.571 134.991 357.817 144.516 357.512 144.067 C 357.205 143.618 330.984 139.338 330.677 138.889 C 330.371 138.442 305.684 131.574 305.379 131.125 C 305.072 130.676 276.552 131.574 276.245 131.125 C 275.938 130.676 250.485 128.984 250.179 128.537 C 249.872 128.088 231.319 131.574 231.012 131.125 C 230.706 130.676 219.051 133.299 215.986 131.574 Z" transform="matrix(0.69737309217453, 0, 0, 0.69737309217453, -19.5, -24.8)"/></g></svg>